<svg width="321" height="75" viewBox="0 0 321 75" fill="none" xmlns="http://www.w3.org/2000/svg">
<path d="M37.557 9.4C40.4904 9.4 43.557 9.66666 46.757 10.2C49.957 10.6667 52.457 11.3 54.257 12.1C54.857 12.3 55.2237 12.5667 55.357 12.9C55.557 13.1667 55.7237 13.6667 55.857 14.4L57.057 28.3C57.057 28.5 56.8904 28.6333 56.557 28.7C56.2237 28.7667 56.0237 28.6667 55.957 28.4C53.6904 23.1333 50.657 19.0667 46.857 16.2C43.057 13.3333 38.657 11.9 33.657 11.9C27.057 11.9 21.957 14.3333 18.357 19.2C14.757 24.0667 12.957 30.6 12.957 38.8C12.957 44.9333 13.9237 50.5333 15.857 55.6C17.857 60.6667 20.6237 64.7 24.157 67.7C27.757 70.6333 31.8237 72.1 36.357 72.1C40.6237 72.1 44.4237 70.7 47.757 67.9C51.157 65.0333 54.1904 60.7 56.857 54.9C56.9237 54.6333 57.1237 54.5333 57.457 54.6C57.857 54.6667 58.057 54.8 58.057 55L56.557 68.6C56.4237 69.4 56.257 69.9333 56.057 70.2C55.9237 70.4 55.557 70.6333 54.957 70.9C49.0237 73.1 42.9237 74.2 36.657 74.2C28.5237 74.2 21.7237 72.6 16.257 69.4C10.7904 66.1333 6.75703 62.0333 4.15703 57.1C1.6237 52.1 0.357031 46.9 0.357031 41.5C0.357031 35.1667 2.05703 29.5667 5.45703 24.7C8.9237 19.8333 13.4904 16.0667 19.157 13.4C24.8904 10.7333 31.0237 9.4 37.557 9.4ZM99.0516 74.3C94.9182 74.3 91.2849 73.3667 88.1516 71.5C85.0849 69.5667 82.7182 67 81.0516 63.8C79.3849 60.5333 78.5516 57 78.5516 53.2C78.5516 48.8667 79.6516 45.2 81.8516 42.2C84.0516 39.1333 86.8516 36.8667 90.2516 35.4C93.6516 33.8667 97.1516 33.1 100.752 33.1C104.885 33.1 108.485 34.0667 111.552 36C114.618 37.9333 116.952 40.5 118.552 43.7C120.218 46.8333 121.052 50.2 121.052 53.8C121.052 57.8 120.052 61.3667 118.052 64.5C116.052 67.5667 113.352 69.9667 109.952 71.7C106.618 73.4333 102.985 74.3 99.0516 74.3ZM102.052 72.2C104.652 72.2 106.618 70.9333 107.952 68.4C109.352 65.8 110.052 62.1 110.052 57.3C110.052 52.6333 109.452 48.6333 108.252 45.3C107.052 41.9667 105.485 39.4667 103.552 37.8C101.618 36.0667 99.5516 35.2 97.3516 35.2C92.0182 35.2 89.3516 39.9667 89.3516 49.5C89.3516 53.9667 89.9182 57.9333 91.0516 61.4C92.1849 64.8 93.7182 67.4667 95.6516 69.4C97.5849 71.2667 99.7182 72.2 102.052 72.2ZM140.777 73C140.644 73 140.577 72.8 140.577 72.4C140.577 72 140.644 71.8 140.777 71.8C142.844 71.8 144.244 71.3333 144.977 70.4C145.777 69.4 146.177 67.5667 146.177 64.9L146.277 14.1C146.277 11.7667 146.044 10.1 145.577 9.09999C145.177 8.1 144.444 7.6 143.377 7.6C142.511 7.6 141.244 7.96666 139.577 8.7H139.477C139.277 8.7 139.077 8.53333 138.877 8.2C138.744 7.8 138.744 7.56666 138.877 7.5L153.577 0.599996L153.977 0.499998C154.311 0.499998 154.677 0.666664 155.077 0.999997C155.477 1.26666 155.677 1.53333 155.677 1.8V64.9C155.677 67.5667 156.044 69.4 156.777 70.4C157.511 71.3333 158.911 71.8 160.977 71.8C161.244 71.8 161.377 72 161.377 72.4C161.377 72.8 161.244 73 160.977 73C159.311 73 157.977 72.9667 156.977 72.9L150.877 72.8L144.877 72.9C143.877 72.9667 142.511 73 140.777 73ZM200.735 74.3C196.602 74.3 192.968 73.3667 189.835 71.5C186.768 69.5667 184.402 67 182.735 63.8C181.068 60.5333 180.235 57 180.235 53.2C180.235 48.8667 181.335 45.2 183.535 42.2C185.735 39.1333 188.535 36.8667 191.935 35.4C195.335 33.8667 198.835 33.1 202.435 33.1C206.568 33.1 210.168 34.0667 213.235 36C216.302 37.9333 218.635 40.5 220.235 43.7C221.902 46.8333 222.735 50.2 222.735 53.8C222.735 57.8 221.735 61.3667 219.735 64.5C217.735 67.5667 215.035 69.9667 211.635 71.7C208.302 73.4333 204.668 74.3 200.735 74.3ZM203.735 72.2C206.335 72.2 208.302 70.9333 209.635 68.4C211.035 65.8 211.735 62.1 211.735 57.3C211.735 52.6333 211.135 48.6333 209.935 45.3C208.735 41.9667 207.168 39.4667 205.235 37.8C203.302 36.0667 201.235 35.2 199.035 35.2C193.702 35.2 191.035 39.9667 191.035 49.5C191.035 53.9667 191.602 57.9333 192.735 61.4C193.868 64.8 195.402 67.4667 197.335 69.4C199.268 71.2667 201.402 72.2 203.735 72.2ZM268.861 33.4C270.394 33.4 271.861 33.9667 273.261 35.1C274.728 36.1667 275.461 37.4667 275.461 39C275.461 40.4 275.028 41.5667 274.161 42.5C273.294 43.3667 272.161 43.8 270.761 43.8C269.761 43.8 268.928 43.6 268.261 43.2C267.661 42.8 267.028 42.2 266.361 41.4C265.761 40.7333 265.228 40.2667 264.761 40C264.361 39.6667 263.861 39.5 263.261 39.5C262.594 39.5 261.861 39.7667 261.061 40.3C260.328 40.7667 259.161 41.8 257.561 43.4V64.9C257.561 67.5667 258.194 69.4 259.461 70.4C260.728 71.3333 263.061 71.8 266.461 71.8C266.728 71.8 266.861 72 266.861 72.4C266.861 72.8 266.728 73 266.461 73C264.128 73 262.294 72.9667 260.961 72.9L252.861 72.8L246.961 72.9C245.961 72.9667 244.594 73 242.861 73C242.661 73 242.561 72.8 242.561 72.4C242.561 72 242.661 71.8 242.861 71.8C244.928 71.8 246.328 71.3333 247.061 70.4C247.794 69.4 248.161 67.5667 248.161 64.9V46.1C248.161 44.0333 247.894 42.5333 247.361 41.6C246.894 40.6 246.128 40.1 245.061 40.1C243.928 40.1 242.328 40.5667 240.261 41.5H240.061C239.861 41.5 239.694 41.3333 239.561 41C239.494 40.6667 239.528 40.4667 239.661 40.4L253.561 33.6C253.961 33.4667 254.194 33.4 254.261 33.4C254.994 33.4 255.661 34.1 256.261 35.5C256.928 36.8333 257.328 38.6667 257.461 41C260.194 38.2 262.428 36.2333 264.161 35.1C265.961 33.9667 267.528 33.4 268.861 33.4ZM301.652 39.2C301.652 41.1333 302.318 42.8 303.652 44.2C305.052 45.6 307.052 47.0667 309.652 48.6C312.185 50.0667 314.052 51.2333 315.252 52.1C316.518 52.9 317.652 54.0667 318.652 55.6C319.652 57.0667 320.152 58.8667 320.152 61C320.152 63.2667 319.585 65.4 318.452 67.4C317.318 69.4 315.618 71.0333 313.352 72.3C311.085 73.5 308.385 74.1 305.252 74.1C301.585 74.1 298.118 73.2 294.852 71.4C294.452 71 294.252 70.6 294.252 70.2L294.052 60.3C294.052 60.1 294.218 60 294.552 60C294.952 59.9333 295.185 59.9667 295.252 60.1C296.318 63.4333 298.085 66.2667 300.552 68.6C303.018 70.9333 305.518 72.1 308.052 72.1C309.452 72.1 310.552 71.6667 311.352 70.8C312.218 69.9333 312.652 68.6667 312.652 67C312.652 64.5333 311.952 62.6 310.552 61.2C309.152 59.7333 307.085 58.2333 304.352 56.7C302.018 55.4333 300.252 54.4 299.052 53.6C297.852 52.8 296.785 51.6667 295.852 50.2C294.918 48.7333 294.452 46.9333 294.452 44.8C294.452 40.8667 295.852 38 298.652 36.2C301.452 34.3333 304.885 33.4 308.952 33.4C310.485 33.4 311.852 33.5 313.052 33.7C314.318 33.9 315.718 34.3 317.252 34.9C317.852 35.1 318.152 35.4667 318.152 36C318.152 37.6667 318.118 38.9667 318.052 39.9L317.952 44.9C317.952 45.1 317.752 45.2 317.352 45.2C316.952 45.2 316.752 45.1 316.752 44.9C316.752 43.6333 316.218 42.2667 315.152 40.8C314.085 39.2667 312.685 37.9667 310.952 36.9C309.285 35.8333 307.552 35.3 305.752 35.3C303.018 35.3 301.652 36.6 301.652 39.2Z" fill="#F44336" fill-opacity="0.2"/>
</svg>
