<svg width="89" height="48" viewBox="0 0 89 48" fill="none" xmlns="http://www.w3.org/2000/svg">
<path d="M7.254 14.408C8.046 14.408 8.706 14.192 9.234 13.76C9.762 13.328 10.11 12.716 10.278 11.924H13.41C13.218 13.508 12.558 14.798 11.43 15.794C10.314 16.766 8.928 17.252 7.272 17.252C5.424 17.252 3.882 16.652 2.646 15.452C1.41 14.252 0.792 12.728 0.792 10.88C0.792 9.044 1.41 7.526 2.646 6.326C3.894 5.114 5.436 4.508 7.272 4.508C8.94 4.508 10.326 5 11.43 5.984C12.558 6.968 13.218 8.252 13.41 9.836H10.278C10.11 9.044 9.762 8.432 9.234 8C8.706 7.568 8.046 7.352 7.254 7.352C6.258 7.352 5.442 7.688 4.806 8.36C4.182 9.02 3.87 9.86 3.87 10.88C3.87 11.912 4.182 12.758 4.806 13.418C5.43 14.078 6.246 14.408 7.254 14.408ZM26.3351 4.76V17H23.3111V12.41H18.3251V17H15.2831V4.76H18.3251V9.674H23.3111V4.76H26.3351ZM12.33 28.76V41H9.99L4.122 34.286V41H1.08V28.76H3.402L9.306 35.654V28.76H12.33ZM16.0581 30.362C17.2941 29.126 18.8361 28.508 20.6841 28.508C22.5201 28.508 24.0561 29.126 25.2921 30.362C26.5401 31.586 27.1641 33.092 27.1641 34.88C27.1641 36.656 26.5401 38.168 25.2921 39.416C24.0441 40.64 22.5081 41.252 20.6841 41.252C18.8361 41.252 17.2941 40.64 16.0581 39.416C14.8221 38.18 14.2041 36.668 14.2041 34.88C14.2041 33.092 14.8221 31.586 16.0581 30.362ZM18.2541 37.4C18.9021 38.084 19.7121 38.426 20.6841 38.426C21.6561 38.426 22.4661 38.084 23.1141 37.4C23.7621 36.704 24.0861 35.864 24.0861 34.88C24.0861 33.896 23.7621 33.062 23.1141 32.378C22.4661 31.682 21.6561 31.334 20.6841 31.334C19.7121 31.334 18.9021 31.682 18.2541 32.378C17.6061 33.062 17.2821 33.896 17.2821 34.88C17.2821 35.864 17.6061 36.704 18.2541 37.4ZM46.3085 28.76L42.3665 41.072H39.4145L36.9485 33.566L34.4825 41.072H31.5485L27.5885 28.76H30.8105L33.0965 36.356L35.6885 28.76H38.2085L40.8005 36.356L43.0865 28.76H46.3085Z" fill="#F44336"/>
<path d="M53.646 6.362C54.882 5.126 56.424 4.508 58.272 4.508C60.108 4.508 61.644 5.126 62.88 6.362C64.128 7.586 64.752 9.092 64.752 10.88C64.752 12.656 64.128 14.168 62.88 15.416C61.632 16.64 60.096 17.252 58.272 17.252C56.424 17.252 54.882 16.64 53.646 15.416C52.41 14.18 51.792 12.668 51.792 10.88C51.792 9.092 52.41 7.586 53.646 6.362ZM55.842 13.4C56.49 14.084 57.3 14.426 58.272 14.426C59.244 14.426 60.054 14.084 60.702 13.4C61.35 12.704 61.674 11.864 61.674 10.88C61.674 9.896 61.35 9.062 60.702 8.378C60.054 7.682 59.244 7.334 58.272 7.334C57.3 7.334 56.49 7.682 55.842 8.378C55.194 9.062 54.87 9.896 54.87 10.88C54.87 11.864 55.194 12.704 55.842 13.4ZM71.2515 4.49C72.3915 4.49 73.4655 4.754 74.4735 5.282C75.0255 5.582 75.4815 6.014 75.8415 6.578C76.2015 7.142 76.4175 7.802 76.4895 8.558H73.4295C73.2495 7.526 72.5895 7.01 71.4495 7.01C70.9095 7.01 70.4835 7.118 70.1715 7.334C69.8595 7.55 69.7035 7.85 69.7035 8.234C69.7035 8.546 69.8115 8.792 70.0275 8.972C70.2555 9.14 70.6155 9.278 71.1075 9.386L72.8175 9.782C74.0775 10.07 75.0075 10.484 75.6075 11.024C76.2075 11.552 76.5075 12.302 76.5075 13.274C76.5075 14.498 76.0455 15.47 75.1215 16.19C74.1975 16.898 72.9675 17.252 71.4315 17.252C69.9315 17.252 68.6715 16.892 67.6515 16.172C66.6075 15.428 66.0255 14.348 65.9055 12.932H68.9475C69.0435 13.472 69.3135 13.898 69.7575 14.21C70.2135 14.51 70.8015 14.66 71.5215 14.66C72.0855 14.66 72.5115 14.564 72.7995 14.372C73.0995 14.18 73.2495 13.916 73.2495 13.58C73.2495 13.076 72.8175 12.728 71.9535 12.536L69.9375 12.086C68.7255 11.81 67.8315 11.384 67.2555 10.808C66.6795 10.232 66.3915 9.458 66.3915 8.486C66.3915 7.274 66.8355 6.308 67.7235 5.588C68.6115 4.856 69.7875 4.49 71.2515 4.49ZM81.4716 7.406V9.638H86.9076V12.23H81.4716V14.354H87.6816V17H78.4296V4.76H87.6816V7.406H81.4716Z" fill="#F44336"/>
<rect x="28" y="5" width="22" height="12" rx="6" fill="#F44336"/>
<circle cx="34" cy="11" r="4" fill="#FAF4F4"/>
</svg>
