<svg width="507" height="116" viewBox="0 0 507 116" fill="none" xmlns="http://www.w3.org/2000/svg">
<path d="M23.6809 69.29C23.6809 71.978 23.9749 73.952 24.5629 75.212C25.1509 76.388 26.2429 77.228 27.8389 77.732C29.5189 78.236 32.1649 78.488 35.7769 78.488C36.0289 78.488 36.1549 78.74 36.1549 79.244C36.1549 79.748 36.0289 80 35.7769 80C32.3329 80 29.6449 79.958 27.7129 79.874L16.7509 79.748L7.55294 79.874C5.87294 79.958 3.60494 80 0.748936 80C0.496935 80 0.370935 79.748 0.370935 79.244C0.370935 78.74 0.496935 78.488 0.748936 78.488C3.43694 78.488 5.36894 78.278 6.54494 77.858C7.80494 77.438 8.64494 76.64 9.06494 75.464C9.48494 74.204 9.69494 72.314 9.69494 69.794V11.456C9.69494 8.936 9.48494 7.088 9.06494 5.912C8.64494 4.736 7.80494 3.93799 6.54494 3.51799C5.28494 3.01399 3.35294 2.762 0.748936 2.762C0.496935 2.762 0.370935 2.51 0.370935 2.006C0.370935 1.502 0.496935 1.25 0.748936 1.25L7.42694 1.376C11.2909 1.544 14.3569 1.628 16.6249 1.628C18.6409 1.628 21.0349 1.502 23.8069 1.25C24.8989 1.166 26.2849 1.08199 27.9649 0.997996C29.6449 0.913997 31.5769 0.871997 33.7609 0.871997C42.3289 0.871997 49.0909 2.678 54.0469 6.29C59.0029 9.81799 61.4809 15.32 61.4809 22.796C61.4809 28.004 60.1369 32.414 57.4489 36.026C54.7609 39.638 51.2749 42.368 46.9909 44.216C42.7909 46.064 38.4649 46.988 34.0129 46.988C31.7449 46.988 29.7709 46.778 28.0909 46.358C27.9229 46.358 27.8389 46.148 27.8389 45.728C27.8389 45.476 27.8809 45.224 27.9649 44.972C28.1329 44.72 28.3009 44.636 28.4689 44.72C29.7289 45.056 31.1569 45.224 32.7529 45.224C36.6169 45.224 39.8089 43.418 42.3289 39.806C44.9329 36.194 46.2349 31.07 46.2349 24.434C46.2349 17.798 44.8069 12.674 41.9509 9.062C39.1789 5.45 35.1049 3.644 29.7289 3.644C27.3769 3.644 25.7809 4.19 24.9409 5.28199C24.1009 6.37399 23.6809 8.51599 23.6809 11.708V69.29ZM118.687 30.104C120.619 30.104 122.467 30.818 124.231 32.246C126.079 33.59 127.003 35.228 127.003 37.16C127.003 38.924 126.457 40.394 125.365 41.57C124.273 42.662 122.845 43.208 121.081 43.208C119.821 43.208 118.771 42.956 117.931 42.452C117.175 41.948 116.377 41.192 115.537 40.184C114.781 39.344 114.109 38.756 113.521 38.42C113.017 38 112.387 37.79 111.631 37.79C110.791 37.79 109.867 38.126 108.859 38.798C107.935 39.386 106.465 40.688 104.449 42.704V69.794C104.449 73.154 105.247 75.464 106.843 76.724C108.439 77.9 111.379 78.488 115.663 78.488C115.999 78.488 116.167 78.74 116.167 79.244C116.167 79.748 115.999 80 115.663 80C112.723 80 110.413 79.958 108.733 79.874L98.5269 79.748L91.0929 79.874C89.8329 79.958 88.1109 80 85.9269 80C85.6749 80 85.5489 79.748 85.5489 79.244C85.5489 78.74 85.6749 78.488 85.9269 78.488C88.5309 78.488 90.2949 77.9 91.2189 76.724C92.1429 75.464 92.6049 73.154 92.6049 69.794V46.106C92.6049 43.502 92.2689 41.612 91.5969 40.436C91.0089 39.176 90.0429 38.546 88.6989 38.546C87.2709 38.546 85.2549 39.134 82.6509 40.31H82.3989C82.1469 40.31 81.9369 40.1 81.7689 39.68C81.6849 39.26 81.7269 39.008 81.8949 38.924L99.4089 30.356C99.9129 30.188 100.207 30.104 100.291 30.104C101.215 30.104 102.055 30.986 102.811 32.75C103.651 34.43 104.155 36.74 104.323 39.68C107.767 36.152 110.581 33.674 112.765 32.246C115.033 30.818 117.007 30.104 118.687 30.104ZM173.521 81.638C168.313 81.638 163.735 80.462 159.787 78.11C155.923 75.674 152.941 72.44 150.841 68.408C148.741 64.292 147.691 59.84 147.691 55.052C147.691 49.592 149.077 44.972 151.849 41.192C154.621 37.328 158.149 34.472 162.433 32.624C166.717 30.692 171.127 29.726 175.663 29.726C180.871 29.726 185.407 30.944 189.271 33.38C193.135 35.816 196.075 39.05 198.091 43.082C200.191 47.03 201.241 51.272 201.241 55.808C201.241 60.848 199.981 65.342 197.461 69.29C194.941 73.154 191.539 76.178 187.255 78.362C183.055 80.546 178.477 81.638 173.521 81.638ZM177.301 78.992C180.577 78.992 183.055 77.396 184.735 74.204C186.499 70.928 187.381 66.266 187.381 60.218C187.381 54.338 186.625 49.298 185.113 45.098C183.601 40.898 181.627 37.748 179.191 35.648C176.755 33.464 174.151 32.372 171.379 32.372C164.659 32.372 161.299 38.378 161.299 50.39C161.299 56.018 162.013 61.016 163.441 65.384C164.869 69.668 166.801 73.028 169.237 75.464C171.673 77.816 174.361 78.992 177.301 78.992ZM245.373 34.64C245.205 38 245.121 42.116 245.121 46.988V86.048C245.121 91.76 244.407 96.422 242.979 100.034C241.635 103.73 239.325 106.796 236.049 109.232C232.857 111.668 228.405 113.768 222.693 115.532C222.525 115.616 222.315 115.406 222.063 114.902C221.895 114.482 221.937 114.23 222.189 114.146C226.221 112.382 229.077 109.568 230.757 105.704C232.437 101.84 233.277 96.254 233.277 88.946V47.24C233.277 44.384 232.983 42.326 232.395 41.066C231.891 39.806 230.967 39.176 229.623 39.176C228.531 39.176 226.977 39.638 224.961 40.562H224.835C224.499 40.562 224.205 40.352 223.953 39.932C223.785 39.428 223.827 39.134 224.079 39.05L243.105 30.23L243.483 30.104C243.903 30.104 244.323 30.314 244.743 30.734C245.163 31.154 245.373 31.532 245.373 31.868V34.64ZM238.443 17.63C236.007 17.63 234.117 16.958 232.773 15.614C231.429 14.27 230.757 12.38 230.757 9.94399C230.757 7.76 231.429 6.038 232.773 4.778C234.201 3.434 236.091 2.762 238.443 2.762C240.795 2.762 242.601 3.39199 243.861 4.65199C245.121 5.912 245.751 7.676 245.751 9.94399C245.751 12.38 245.121 14.27 243.861 15.614C242.601 16.958 240.795 17.63 238.443 17.63ZM320.053 71.684C320.221 71.684 320.389 71.852 320.557 72.188C320.809 72.524 320.851 72.776 320.683 72.944C317.575 75.968 314.425 78.152 311.233 79.496C308.041 80.84 304.555 81.512 300.775 81.512C295.483 81.512 290.905 80.42 287.041 78.236C283.177 75.968 280.237 72.986 278.221 69.29C276.205 65.51 275.197 61.478 275.197 57.194C275.197 52.322 276.457 47.828 278.977 43.712C281.497 39.512 284.941 36.236 289.309 33.884C293.677 31.448 298.549 30.23 303.925 30.23C309.133 30.23 313.123 31.364 315.895 33.632C318.667 35.816 320.053 38.84 320.053 42.704C320.053 45.14 319.591 46.358 318.667 46.358H310.981L288.301 46.61C288.049 48.206 287.923 49.97 287.923 51.902C287.923 59.126 289.603 64.838 292.963 69.038C296.407 73.238 301.111 75.338 307.075 75.338C309.175 75.338 311.359 75.044 313.627 74.456C315.895 73.868 317.953 72.986 319.801 71.81L320.053 71.684ZM299.263 32.75C296.743 32.75 294.559 33.758 292.711 35.774C290.863 37.79 289.519 40.562 288.679 44.09L306.571 43.712C306.319 36.404 303.883 32.75 299.263 32.75ZM368.954 81.512C363.41 81.512 358.706 80.336 354.842 77.984C351.062 75.548 348.206 72.44 346.274 68.66C344.426 64.796 343.502 60.764 343.502 56.564C343.502 51.272 344.972 46.652 347.912 42.704C350.852 38.672 354.59 35.606 359.126 33.506C363.746 31.322 368.45 30.23 373.238 30.23C377.27 30.23 380.882 31.07 384.074 32.75C387.35 34.43 388.988 36.74 388.988 39.68C388.988 41.276 388.358 42.662 387.098 43.838C385.922 44.93 384.242 45.476 382.058 45.476C380.042 45.476 378.446 44.972 377.27 43.964C376.094 42.872 375.128 41.234 374.372 39.05C373.616 36.698 372.86 35.102 372.104 34.262C371.432 33.338 370.172 32.876 368.324 32.876C364.712 32.876 361.814 34.682 359.63 38.294C357.53 41.822 356.48 46.526 356.48 52.406C356.48 59.378 358.034 64.964 361.142 69.164C364.25 73.28 369.206 75.338 376.01 75.338C378.278 75.338 380.21 75.086 381.806 74.582C383.486 74.078 385.586 73.238 388.106 72.062H388.232C388.484 72.062 388.694 72.188 388.862 72.44C389.114 72.692 389.156 72.902 388.988 73.07C385.88 75.926 382.772 78.068 379.664 79.496C376.556 80.84 372.986 81.512 368.954 81.512ZM450.2 71.18C450.536 71.18 450.788 71.348 450.956 71.684C451.208 72.02 451.208 72.272 450.956 72.44C447.848 75.548 444.824 77.858 441.884 79.37C438.944 80.798 435.836 81.512 432.56 81.512C428.864 81.512 425.714 80.63 423.11 78.866C420.506 77.102 419.204 74.12 419.204 69.92V41.948C419.204 39.344 418.742 37.538 417.818 36.53C416.894 35.522 415.214 35.018 412.778 35.018C412.694 35.018 412.568 34.892 412.4 34.64C412.316 34.388 412.274 34.136 412.274 33.884C412.274 33.548 412.316 33.296 412.4 33.128C412.484 32.876 412.61 32.75 412.778 32.75C417.062 32.582 420.506 31.658 423.11 29.978C425.798 28.298 427.856 25.736 429.284 22.292C429.452 21.956 429.788 21.788 430.292 21.788C430.88 21.788 431.174 21.956 431.174 22.292V32.372C436.046 32.288 441.506 31.91 447.554 31.238C447.722 31.238 447.89 31.574 448.058 32.246C448.31 32.834 448.436 33.506 448.436 34.262C448.436 35.102 448.268 35.942 447.932 36.782C447.68 37.538 447.386 37.874 447.05 37.79C441.59 36.614 436.298 35.984 431.174 35.9V65.762C431.174 68.954 431.972 71.306 433.568 72.818C435.248 74.33 437.432 75.086 440.12 75.086C443.48 75.086 446.756 73.826 449.948 71.306L450.2 71.18ZM482.952 37.412C482.952 39.848 483.792 41.948 485.472 43.712C487.236 45.476 489.756 47.324 493.032 49.256C496.224 51.104 498.576 52.574 500.088 53.666C501.684 54.674 503.112 56.144 504.372 58.076C505.632 59.924 506.262 62.192 506.262 64.88C506.262 67.736 505.548 70.424 504.12 72.944C502.692 75.464 500.55 77.522 497.694 79.118C494.838 80.63 491.436 81.386 487.488 81.386C482.868 81.386 478.5 80.252 474.384 77.984C473.88 77.48 473.628 76.976 473.628 76.472L473.376 63.998C473.376 63.746 473.586 63.62 474.006 63.62C474.51 63.536 474.804 63.578 474.888 63.746C476.232 67.946 478.458 71.516 481.566 74.456C484.674 77.396 487.824 78.866 491.016 78.866C492.78 78.866 494.166 78.32 495.174 77.228C496.266 76.136 496.812 74.54 496.812 72.44C496.812 69.332 495.93 66.896 494.166 65.132C492.402 63.284 489.798 61.394 486.354 59.462C483.414 57.866 481.188 56.564 479.676 55.556C478.164 54.548 476.82 53.12 475.644 51.272C474.468 49.424 473.88 47.156 473.88 44.468C473.88 39.512 475.644 35.9 479.172 33.632C482.7 31.28 487.026 30.104 492.15 30.104C494.082 30.104 495.804 30.23 497.316 30.482C498.912 30.734 500.676 31.238 502.608 31.994C503.364 32.246 503.742 32.708 503.742 33.38C503.742 35.48 503.7 37.118 503.616 38.294L503.49 44.594C503.49 44.846 503.238 44.972 502.734 44.972C502.23 44.972 501.978 44.846 501.978 44.594C501.978 42.998 501.306 41.276 499.962 39.428C498.618 37.496 496.854 35.858 494.67 34.514C492.57 33.17 490.386 32.498 488.118 32.498C484.674 32.498 482.952 34.136 482.952 37.412Z" fill="#F3E4E3" fill-opacity="0.64"/>
</svg>
