<svg width="65" height="870" viewBox="0 0 65 870" fill="none" xmlns="http://www.w3.org/2000/svg">
<path d="M41.518 0.0399959C44.7447 0.0399959 48.118 0.33333 51.638 0.919998C55.158 1.43333 57.908 2.13 59.888 3.01C60.548 3.23 60.9513 3.52333 61.098 3.89C61.318 4.18333 61.5013 4.73333 61.648 5.54L62.968 20.83C62.968 21.05 62.7847 21.1967 62.418 21.27C62.0513 21.3433 61.8313 21.2333 61.758 20.94C59.2647 15.1467 55.928 10.6733 51.748 7.52C47.568 4.36667 42.728 2.79 37.228 2.79C29.968 2.79 24.358 5.46666 20.398 10.82C16.438 16.1733 14.458 23.36 14.458 32.38C14.458 39.1267 15.5213 45.2867 17.648 50.86C19.848 56.4333 22.8913 60.87 26.778 64.17C30.738 67.3967 35.2113 69.01 40.198 69.01C44.8913 69.01 49.0713 67.47 52.738 64.39C56.478 61.2367 59.8147 56.47 62.748 50.09C62.8213 49.7967 63.0413 49.6867 63.408 49.76C63.848 49.8333 64.068 49.98 64.068 50.2L62.418 65.16C62.2713 66.04 62.088 66.6267 61.868 66.92C61.7213 67.14 61.318 67.3967 60.658 67.69C54.1313 70.11 47.4213 71.32 40.528 71.32C31.5813 71.32 24.1013 69.56 18.088 66.04C12.0747 62.4467 7.63801 57.9367 4.77801 52.51C1.99134 47.01 0.598008 41.29 0.598008 35.35C0.598008 28.3833 2.46801 22.2233 6.20801 16.87C10.0213 11.5167 15.0447 7.37333 21.278 4.44C27.5847 1.50666 34.3313 0.0399959 41.518 0.0399959ZM31.1608 204.43C26.6142 204.43 22.6175 203.403 19.1708 201.35C15.7975 199.223 13.1942 196.4 11.3608 192.88C9.52749 189.287 8.61082 185.4 8.61082 181.22C8.61082 176.453 9.82082 172.42 12.2408 169.12C14.6608 165.747 17.7408 163.253 21.4808 161.64C25.2208 159.953 29.0708 159.11 33.0308 159.11C37.5775 159.11 41.5375 160.173 44.9108 162.3C48.2842 164.427 50.8508 167.25 52.6108 170.77C54.4442 174.217 55.3608 177.92 55.3608 181.88C55.3608 186.28 54.2608 190.203 52.0608 193.65C49.8608 197.023 46.8908 199.663 43.1508 201.57C39.4842 203.477 35.4875 204.43 31.1608 204.43ZM34.4608 202.12C37.3208 202.12 39.4842 200.727 40.9508 197.94C42.4908 195.08 43.2608 191.01 43.2608 185.73C43.2608 180.597 42.6008 176.197 41.2808 172.53C39.9608 168.863 38.2375 166.113 36.1108 164.28C33.9842 162.373 31.7108 161.42 29.2908 161.42C23.4242 161.42 20.4908 166.663 20.4908 177.15C20.4908 182.063 21.1142 186.427 22.3608 190.24C23.6075 193.98 25.2942 196.913 27.4208 199.04C29.5475 201.093 31.8942 202.12 34.4608 202.12ZM59.0398 334.68C59.2598 334.68 59.3698 334.9 59.3698 335.34C59.3698 335.78 59.2598 336 59.0398 336C57.1331 336 55.6298 335.963 54.5298 335.89L47.9298 335.78L41.5498 335.89C40.3765 335.963 38.8365 336 36.9298 336C36.7098 336 36.5998 335.78 36.5998 335.34C36.5998 334.9 36.7098 334.68 36.9298 334.68C39.2031 334.68 40.7431 334.167 41.5498 333.14C42.3565 332.04 42.7598 330.023 42.7598 327.09V311.25C42.7598 307.29 42.0265 304.357 40.5598 302.45C39.1665 300.543 36.9298 299.59 33.8498 299.59C32.0898 299.59 30.2565 299.957 28.3498 300.69C26.5165 301.423 24.9031 302.413 23.5098 303.66V327.09C23.5098 330.023 23.9131 332.04 24.7198 333.14C25.5998 334.167 27.1765 334.68 29.4498 334.68C29.6698 334.68 29.7798 334.9 29.7798 335.34C29.7798 335.78 29.6698 336 29.4498 336C27.5431 336 26.0398 335.963 24.9398 335.89L18.3398 335.78L11.8498 335.89C10.7498 335.963 9.24647 336 7.3398 336C7.1198 336 7.0098 335.78 7.0098 335.34C7.0098 334.9 7.1198 334.68 7.3398 334.68C9.61314 334.68 11.1531 334.167 11.9598 333.14C12.7665 332.04 13.1698 330.023 13.1698 327.09V306.41C13.1698 304.137 12.8765 302.487 12.2898 301.46C11.7765 300.36 10.9331 299.81 9.75981 299.81C8.51314 299.81 6.75314 300.323 4.4798 301.35H4.2598C4.0398 301.35 3.85647 301.167 3.7098 300.8C3.63647 300.433 3.67314 300.213 3.8198 300.14L19.1098 292.66C19.5498 292.513 19.8065 292.44 19.8798 292.44C20.6865 292.44 21.4565 293.247 22.1898 294.86C22.9231 296.4 23.3631 298.527 23.5098 301.24C28.5698 295.227 34.1431 292.22 40.2298 292.22C44.1898 292.22 47.3065 293.503 49.5798 296.07C51.9265 298.563 53.0998 301.863 53.0998 305.97V327.09C53.0998 330.023 53.5031 332.04 54.3098 333.14C55.1898 334.167 56.7665 334.68 59.0398 334.68ZM49.1634 461.3C49.4568 461.3 49.6768 461.447 49.8234 461.74C50.0434 462.033 50.0434 462.253 49.8234 462.4C47.1101 465.113 44.4701 467.13 41.9034 468.45C39.3368 469.697 36.6234 470.32 33.7634 470.32C30.5368 470.32 27.7868 469.55 25.5134 468.01C23.2401 466.47 22.1034 463.867 22.1034 460.2V435.78C22.1034 433.507 21.7001 431.93 20.8934 431.05C20.0868 430.17 18.6201 429.73 16.4934 429.73C16.4201 429.73 16.3101 429.62 16.1634 429.4C16.0901 429.18 16.0534 428.96 16.0534 428.74C16.0534 428.447 16.0901 428.227 16.1634 428.08C16.2368 427.86 16.3468 427.75 16.4934 427.75C20.2334 427.603 23.2401 426.797 25.5134 425.33C27.8601 423.863 29.6568 421.627 30.9034 418.62C31.0501 418.327 31.3434 418.18 31.7834 418.18C32.2968 418.18 32.5534 418.327 32.5534 418.62V427.42C36.8068 427.347 41.5734 427.017 46.8534 426.43C47.0001 426.43 47.1468 426.723 47.2934 427.31C47.5134 427.823 47.6234 428.41 47.6234 429.07C47.6234 429.803 47.4768 430.537 47.1834 431.27C46.9634 431.93 46.7068 432.223 46.4134 432.15C41.6468 431.123 37.0268 430.573 32.5534 430.5V456.57C32.5534 459.357 33.2501 461.41 34.6434 462.73C36.1101 464.05 38.0168 464.71 40.3634 464.71C43.2968 464.71 46.1568 463.61 48.9434 461.41L49.1634 461.3ZM54.9406 596.06C55.2339 596.06 55.4173 596.243 55.4906 596.61C55.6373 596.903 55.5639 597.123 55.2706 597.27L43.9406 602.66C43.6473 602.807 43.2806 602.88 42.8406 602.88C41.7406 602.88 40.6406 602.33 39.5406 601.23C38.5139 600.13 37.7806 598.627 37.3406 596.72L32.2806 599.47C30.3739 600.423 28.3939 601.23 26.3406 601.89C24.2873 602.477 22.4539 602.77 20.8406 602.77C18.4939 602.77 16.6239 602.183 15.2306 601.01C13.9106 599.763 13.2506 598.003 13.2506 595.73C13.2506 594.043 13.6539 592.687 14.4606 591.66C15.3406 590.633 16.5506 589.79 18.0906 589.13C19.7039 588.397 22.2339 587.443 25.6806 586.27L36.9006 582.64V573.95C36.9006 569.55 36.4606 566.323 35.5806 564.27C34.7006 562.143 33.2706 561.08 31.2906 561.08C29.5306 561.08 28.1373 561.74 27.1106 563.06C26.0839 564.38 25.4606 566.543 25.2406 569.55C24.8006 573.657 22.6373 575.71 18.7506 575.71C15.3039 575.71 13.5806 574.207 13.5806 571.2C13.5806 569.22 14.8273 567.24 17.3206 565.26C19.8139 563.28 22.8206 561.667 26.3406 560.42C29.8606 559.173 32.9406 558.55 35.5806 558.55C39.0273 558.55 41.8139 559.577 43.9406 561.63C46.1406 563.683 47.2406 566.69 47.2406 570.65V590.12C47.2406 592.247 47.6073 593.897 48.3406 595.07C49.1473 596.243 50.2473 596.83 51.6406 596.83C52.6673 596.83 53.7306 596.573 54.8306 596.06H54.9406ZM37.0106 594.96C36.9373 594.447 36.9006 593.677 36.9006 592.65V584.51L30.8506 586.71C28.8706 587.443 27.4406 588.25 26.5606 589.13C25.7539 590.01 25.3506 591.073 25.3506 592.32C25.3506 593.86 25.7906 595.07 26.6706 595.95C27.5506 596.83 28.6506 597.27 29.9706 597.27C31.5839 597.27 33.4539 596.757 35.5806 595.73L37.0106 594.96ZM34.3757 736.32C29.5357 736.32 25.4291 735.293 22.0557 733.24C18.7557 731.113 16.2624 728.4 14.5757 725.1C12.9624 721.727 12.1557 718.207 12.1557 714.54C12.1557 709.92 13.4391 705.887 16.0057 702.44C18.5724 698.92 21.8357 696.243 25.7957 694.41C29.8291 692.503 33.9357 691.55 38.1157 691.55C41.6357 691.55 44.7891 692.283 47.5757 693.75C50.4357 695.217 51.8657 697.233 51.8657 699.8C51.8657 701.193 51.3157 702.403 50.2157 703.43C49.1891 704.383 47.7224 704.86 45.8157 704.86C44.0557 704.86 42.6624 704.42 41.6357 703.54C40.6091 702.587 39.7657 701.157 39.1057 699.25C38.4457 697.197 37.7857 695.803 37.1257 695.07C36.5391 694.263 35.4391 693.86 33.8257 693.86C30.6724 693.86 28.1424 695.437 26.2357 698.59C24.4024 701.67 23.4857 705.777 23.4857 710.91C23.4857 716.997 24.8424 721.873 27.5557 725.54C30.2691 729.133 34.5957 730.93 40.5357 730.93C42.5157 730.93 44.2024 730.71 45.5957 730.27C47.0624 729.83 48.8957 729.097 51.0957 728.07H51.2057C51.4257 728.07 51.6091 728.18 51.7557 728.4C51.9757 728.62 52.0124 728.803 51.8657 728.95C49.1524 731.443 46.4391 733.313 43.7257 734.56C41.0124 735.733 37.8957 736.32 34.3757 736.32ZM49.1634 860.3C49.4568 860.3 49.6768 860.447 49.8234 860.74C50.0434 861.033 50.0434 861.253 49.8234 861.4C47.1101 864.113 44.4701 866.13 41.9034 867.45C39.3368 868.697 36.6234 869.32 33.7634 869.32C30.5368 869.32 27.7868 868.55 25.5134 867.01C23.2401 865.47 22.1034 862.867 22.1034 859.2V834.78C22.1034 832.507 21.7001 830.93 20.8934 830.05C20.0868 829.17 18.6201 828.73 16.4934 828.73C16.4201 828.73 16.3101 828.62 16.1634 828.4C16.0901 828.18 16.0534 827.96 16.0534 827.74C16.0534 827.447 16.0901 827.227 16.1634 827.08C16.2368 826.86 16.3468 826.75 16.4934 826.75C20.2334 826.603 23.2401 825.797 25.5134 824.33C27.8601 822.863 29.6568 820.627 30.9034 817.62C31.0501 817.327 31.3434 817.18 31.7834 817.18C32.2968 817.18 32.5534 817.327 32.5534 817.62V826.42C36.8068 826.347 41.5734 826.017 46.8534 825.43C47.0001 825.43 47.1468 825.723 47.2934 826.31C47.5134 826.823 47.6234 827.41 47.6234 828.07C47.6234 828.803 47.4768 829.537 47.1834 830.27C46.9634 830.93 46.7068 831.223 46.4134 831.15C41.6468 830.123 37.0268 829.573 32.5534 829.5V855.57C32.5534 858.357 33.2501 860.41 34.6434 861.73C36.1101 863.05 38.0168 863.71 40.3634 863.71C43.2968 863.71 46.1568 862.61 48.9434 860.41L49.1634 860.3Z" fill="#F6EDEC" fill-opacity="0.8"/>
</svg>
