<svg width="452" height="116" viewBox="0 0 452 116" fill="none" xmlns="http://www.w3.org/2000/svg">
<path d="M23.5965 69.29C23.5965 71.978 23.8905 73.952 24.4785 75.212C25.0665 76.388 26.1585 77.228 27.7545 77.732C29.4345 78.236 32.0805 78.488 35.6925 78.488C35.9445 78.488 36.0705 78.74 36.0705 79.244C36.0705 79.748 35.9445 80 35.6925 80C32.2485 80 29.5605 79.958 27.6285 79.874L16.6665 79.748L7.46851 79.874C5.78851 79.958 3.52051 80 0.664509 80C0.412509 80 0.286509 79.748 0.286509 79.244C0.286509 78.74 0.412509 78.488 0.664509 78.488C3.35251 78.488 5.28451 78.278 6.46051 77.858C7.72051 77.438 8.56051 76.64 8.98051 75.464C9.40051 74.204 9.61051 72.314 9.61051 69.794V11.456C9.61051 8.936 9.40051 7.088 8.98051 5.912C8.56051 4.736 7.72051 3.93799 6.46051 3.51799C5.20051 3.01399 3.26851 2.762 0.664509 2.762C0.412509 2.762 0.286509 2.51 0.286509 2.006C0.286509 1.502 0.412509 1.25 0.664509 1.25L7.34251 1.376C11.2065 1.544 14.2725 1.628 16.5405 1.628C18.5565 1.628 20.9505 1.502 23.7225 1.25C24.8145 1.166 26.2005 1.08199 27.8805 0.997996C29.5605 0.913997 31.4925 0.871997 33.6765 0.871997C42.2445 0.871997 49.0065 2.678 53.9625 6.29C58.9185 9.81799 61.3965 15.32 61.3965 22.796C61.3965 28.004 60.0525 32.414 57.3645 36.026C54.6765 39.638 51.1905 42.368 46.9065 44.216C42.7065 46.064 38.3805 46.988 33.9285 46.988C31.6605 46.988 29.6865 46.778 28.0065 46.358C27.8385 46.358 27.7545 46.148 27.7545 45.728C27.7545 45.476 27.7965 45.224 27.8805 44.972C28.0485 44.72 28.2165 44.636 28.3845 44.72C29.6445 45.056 31.0725 45.224 32.6685 45.224C36.5325 45.224 39.7245 43.418 42.2445 39.806C44.8485 36.194 46.1505 31.07 46.1505 24.434C46.1505 17.798 44.7225 12.674 41.8665 9.062C39.0945 5.45 35.0205 3.644 29.6445 3.644C27.2925 3.644 25.6965 4.19 24.8565 5.28199C24.0165 6.37399 23.5965 8.51599 23.5965 11.708V69.29ZM118.602 30.104C120.534 30.104 122.382 30.818 124.146 32.246C125.994 33.59 126.918 35.228 126.918 37.16C126.918 38.924 126.372 40.394 125.28 41.57C124.188 42.662 122.76 43.208 120.996 43.208C119.736 43.208 118.686 42.956 117.846 42.452C117.09 41.948 116.292 41.192 115.452 40.184C114.696 39.344 114.024 38.756 113.436 38.42C112.932 38 112.302 37.79 111.546 37.79C110.706 37.79 109.782 38.126 108.774 38.798C107.85 39.386 106.38 40.688 104.364 42.704V69.794C104.364 73.154 105.162 75.464 106.758 76.724C108.354 77.9 111.294 78.488 115.578 78.488C115.914 78.488 116.082 78.74 116.082 79.244C116.082 79.748 115.914 80 115.578 80C112.638 80 110.328 79.958 108.648 79.874L98.4425 79.748L91.0085 79.874C89.7485 79.958 88.0265 80 85.8425 80C85.5905 80 85.4645 79.748 85.4645 79.244C85.4645 78.74 85.5905 78.488 85.8425 78.488C88.4465 78.488 90.2105 77.9 91.1345 76.724C92.0585 75.464 92.5205 73.154 92.5205 69.794V46.106C92.5205 43.502 92.1845 41.612 91.5125 40.436C90.9245 39.176 89.9585 38.546 88.6145 38.546C87.1865 38.546 85.1705 39.134 82.5665 40.31H82.3145C82.0625 40.31 81.8525 40.1 81.6845 39.68C81.6005 39.26 81.6425 39.008 81.8105 38.924L99.3245 30.356C99.8285 30.188 100.122 30.104 100.206 30.104C101.13 30.104 101.97 30.986 102.726 32.75C103.566 34.43 104.07 36.74 104.238 39.68C107.682 36.152 110.496 33.674 112.68 32.246C114.948 30.818 116.922 30.104 118.602 30.104ZM173.436 81.638C168.228 81.638 163.65 80.462 159.702 78.11C155.838 75.674 152.856 72.44 150.756 68.408C148.656 64.292 147.606 59.84 147.606 55.052C147.606 49.592 148.992 44.972 151.764 41.192C154.536 37.328 158.064 34.472 162.348 32.624C166.632 30.692 171.042 29.726 175.578 29.726C180.786 29.726 185.322 30.944 189.186 33.38C193.05 35.816 195.99 39.05 198.006 43.082C200.106 47.03 201.156 51.272 201.156 55.808C201.156 60.848 199.896 65.342 197.376 69.29C194.856 73.154 191.454 76.178 187.17 78.362C182.97 80.546 178.392 81.638 173.436 81.638ZM177.216 78.992C180.492 78.992 182.97 77.396 184.65 74.204C186.414 70.928 187.296 66.266 187.296 60.218C187.296 54.338 186.54 49.298 185.028 45.098C183.516 40.898 181.542 37.748 179.106 35.648C176.67 33.464 174.066 32.372 171.294 32.372C164.574 32.372 161.214 38.378 161.214 50.39C161.214 56.018 161.928 61.016 163.356 65.384C164.784 69.668 166.716 73.028 169.152 75.464C171.588 77.816 174.276 78.992 177.216 78.992ZM245.289 34.64C245.121 38 245.037 42.116 245.037 46.988V86.048C245.037 91.76 244.323 96.422 242.895 100.034C241.551 103.73 239.241 106.796 235.965 109.232C232.773 111.668 228.321 113.768 222.609 115.532C222.441 115.616 222.231 115.406 221.979 114.902C221.811 114.482 221.853 114.23 222.105 114.146C226.137 112.382 228.993 109.568 230.673 105.704C232.353 101.84 233.193 96.254 233.193 88.946V47.24C233.193 44.384 232.899 42.326 232.311 41.066C231.807 39.806 230.883 39.176 229.539 39.176C228.447 39.176 226.893 39.638 224.877 40.562H224.751C224.415 40.562 224.121 40.352 223.869 39.932C223.701 39.428 223.743 39.134 223.995 39.05L243.021 30.23L243.399 30.104C243.819 30.104 244.239 30.314 244.659 30.734C245.079 31.154 245.289 31.532 245.289 31.868V34.64ZM238.359 17.63C235.923 17.63 234.033 16.958 232.689 15.614C231.345 14.27 230.673 12.38 230.673 9.94399C230.673 7.76 231.345 6.038 232.689 4.778C234.117 3.434 236.007 2.762 238.359 2.762C240.711 2.762 242.517 3.39199 243.777 4.65199C245.037 5.912 245.667 7.676 245.667 9.94399C245.667 12.38 245.037 14.27 243.777 15.614C242.517 16.958 240.711 17.63 238.359 17.63ZM319.968 71.684C320.136 71.684 320.304 71.852 320.472 72.188C320.724 72.524 320.766 72.776 320.598 72.944C317.49 75.968 314.34 78.152 311.148 79.496C307.956 80.84 304.47 81.512 300.69 81.512C295.398 81.512 290.82 80.42 286.956 78.236C283.092 75.968 280.152 72.986 278.136 69.29C276.12 65.51 275.112 61.478 275.112 57.194C275.112 52.322 276.372 47.828 278.892 43.712C281.412 39.512 284.856 36.236 289.224 33.884C293.592 31.448 298.464 30.23 303.84 30.23C309.048 30.23 313.038 31.364 315.81 33.632C318.582 35.816 319.968 38.84 319.968 42.704C319.968 45.14 319.506 46.358 318.582 46.358H310.896L288.216 46.61C287.964 48.206 287.838 49.97 287.838 51.902C287.838 59.126 289.518 64.838 292.878 69.038C296.322 73.238 301.026 75.338 306.99 75.338C309.09 75.338 311.274 75.044 313.542 74.456C315.81 73.868 317.868 72.986 319.716 71.81L319.968 71.684ZM299.178 32.75C296.658 32.75 294.474 33.758 292.626 35.774C290.778 37.79 289.434 40.562 288.594 44.09L306.486 43.712C306.234 36.404 303.798 32.75 299.178 32.75ZM368.87 81.512C363.326 81.512 358.622 80.336 354.758 77.984C350.978 75.548 348.122 72.44 346.19 68.66C344.342 64.796 343.418 60.764 343.418 56.564C343.418 51.272 344.888 46.652 347.828 42.704C350.768 38.672 354.506 35.606 359.042 33.506C363.662 31.322 368.366 30.23 373.154 30.23C377.186 30.23 380.798 31.07 383.99 32.75C387.266 34.43 388.904 36.74 388.904 39.68C388.904 41.276 388.274 42.662 387.014 43.838C385.838 44.93 384.158 45.476 381.974 45.476C379.958 45.476 378.362 44.972 377.186 43.964C376.01 42.872 375.044 41.234 374.288 39.05C373.532 36.698 372.776 35.102 372.02 34.262C371.348 33.338 370.088 32.876 368.24 32.876C364.628 32.876 361.73 34.682 359.546 38.294C357.446 41.822 356.396 46.526 356.396 52.406C356.396 59.378 357.95 64.964 361.058 69.164C364.166 73.28 369.122 75.338 375.926 75.338C378.194 75.338 380.126 75.086 381.722 74.582C383.402 74.078 385.502 73.238 388.022 72.062H388.148C388.4 72.062 388.61 72.188 388.778 72.44C389.03 72.692 389.072 72.902 388.904 73.07C385.796 75.926 382.688 78.068 379.58 79.496C376.472 80.84 372.902 81.512 368.87 81.512ZM450.115 71.18C450.451 71.18 450.703 71.348 450.871 71.684C451.123 72.02 451.123 72.272 450.871 72.44C447.763 75.548 444.739 77.858 441.799 79.37C438.859 80.798 435.751 81.512 432.475 81.512C428.779 81.512 425.629 80.63 423.025 78.866C420.421 77.102 419.119 74.12 419.119 69.92V41.948C419.119 39.344 418.657 37.538 417.733 36.53C416.809 35.522 415.129 35.018 412.693 35.018C412.609 35.018 412.483 34.892 412.315 34.64C412.231 34.388 412.189 34.136 412.189 33.884C412.189 33.548 412.231 33.296 412.315 33.128C412.399 32.876 412.525 32.75 412.693 32.75C416.977 32.582 420.421 31.658 423.025 29.978C425.713 28.298 427.771 25.736 429.199 22.292C429.367 21.956 429.703 21.788 430.207 21.788C430.795 21.788 431.089 21.956 431.089 22.292V32.372C435.961 32.288 441.421 31.91 447.469 31.238C447.637 31.238 447.805 31.574 447.973 32.246C448.225 32.834 448.351 33.506 448.351 34.262C448.351 35.102 448.183 35.942 447.847 36.782C447.595 37.538 447.301 37.874 446.965 37.79C441.505 36.614 436.213 35.984 431.089 35.9V65.762C431.089 68.954 431.887 71.306 433.483 72.818C435.163 74.33 437.347 75.086 440.035 75.086C443.395 75.086 446.671 73.826 449.863 71.306L450.115 71.18Z" fill="#F44336" fill-opacity="0.36"/>
</svg>
